<?xml version="1.0" encoding="UTF-8"?>
<svg version="1.1" xmlns="http://www.w3.org/2000/svg" width="2000" height="2000">
<path d="M0 0 C4.455 -16.83 4.455 -16.83 9 -34 C15.30695276 -44.51158793 19.16377224 -48.58188612 30 -54 C40.72371025 -56.68092756 47.96865712 -54.64776105 58 -51 C66.68612676 -43.18248591 71.68374738 -38.58126312 74 -27 C74 -7.52967127 66.39951624 13.30936686 61 32 C61 32.99 61 33.98 61 35 C62.03898437 35.64066406 63.07796875 36.28132812 64.1484375 36.94140625 C70.91770223 41.13221352 77.64450702 45.32931721 84.12109375 49.96484375 C87.33862485 52.23938066 90.59541029 54.45098192 93.85571289 56.66357422 C102.07051557 62.24413113 110.13411753 67.93421546 118 74 C119.04285156 74.79921875 120.08570313 75.5984375 121.16015625 76.421875 C123.34540621 78.0977564 125.52740687 79.77774697 127.70703125 81.4609375 C129.90787089 83.16012959 132.11371741 84.85245971 134.32421875 86.5390625 C144.15951744 94.05086802 153.70561 101.87727006 163.13549805 109.88964844 C168.36789514 114.32944853 173.67615398 118.66993857 179 123 C183.95 127.62 188.9 132.24 194 137 C194.66 137.33 195.32 137.66 196 138 C196 138.66 196 139.32 196 140 C197.32 140.66 198.64 141.32 200 142 C200.86588745 142.97308105 200.86588745 142.97308105 201.74926758 143.96582031 C210.71724626 153.90443285 220.19919103 163.31126031 229.6875 172.75 C231.37197948 174.42945215 233.05622601 176.10913797 234.74023438 177.7890625 C238.82414431 181.86206983 242.91090876 185.93219479 247 190 C247.47454117 190.54305786 247.94908234 191.08611572 248.43800354 191.64562988 C249.06375778 192.36134155 249.68951202 193.07705322 250.33422852 193.81445312 C250.95314468 194.52251099 251.57206085 195.23056885 252.20973206 195.96008301 C254.43184302 198.49206261 256.68008176 200.99947518 258.9375 203.5 C259.70964844 204.3559375 260.48179688 205.211875 261.27734375 206.09375 C263.59278434 208.6559609 266.34700035 210.78916696 269 213 C269.52207031 213.64324219 270.04414062 214.28648437 270.58203125 214.94921875 C274.34933786 219.5742309 278.13507674 224.17568516 282.00854492 228.71191406 C287.73668712 235.4215264 293.22569968 242.29009433 298.63818359 249.25585938 C299.96428721 250.954261 301.30191091 252.6427609 302.64453125 254.328125 C319.05311099 274.95579514 334.41023455 296.47058734 348.54443359 318.71728516 C350.11923712 321.18699549 351.70933093 323.64645537 353.30078125 326.10546875 C361.94345185 339.50621825 370.09754719 353.15092672 378 367 C378.44794922 367.78262207 378.89589844 368.56524414 379.35742188 369.37158203 C392.22564918 391.93113028 405.11675398 415.23461793 415.1875 439.1875 C415.79658203 440.63189453 415.79658203 440.63189453 416.41796875 442.10546875 C417.79977789 445.44823796 419.081384 448.82630029 420.3671875 452.20703125 C422.34130369 457.36071039 424.43967704 462.43945306 426.63769531 467.50097656 C462.50323535 550.25309786 485.65694136 639.30887486 502 851 C501.98211426 852.22315918 501.96422852 853.44631836 501.94580078 854.70654297 C500.53742418 937.78020249 488.29627177 1021.04805819 405 1256 C404.30159548 1257.42293774 403.60361758 1258.84608503 402.90625 1260.26953125 C401.35382855 1263.42254577 399.77393222 1266.56058931 398.17724609 1269.69140625 C397.29216334 1271.42706417 396.41020316 1273.16431497 395.52978516 1274.90234375 C387.77360443 1290.18774022 379.67006838 1305.18465865 370.86132812 1319.88964844 C368.92188429 1323.13053438 367.00032408 1326.38167402 365.078125 1329.6328125 C350.654101 1353.9079174 334.82799686 1377.32609524 318 1400 C317.38342529 1400.8338623 317.38342529 1400.8338623 316.75439453 1401.68457031 C314.19438365 1405.1421107 311.6045529 1408.57593136 309 1412 C308.23558594 1413.00933594 307.47117187 1414.01867188 306.68359375 1415.05859375 C300.45712723 1423.24234636 293.9979321 1431.22819262 287.48388672 1439.18408203 C286.19366805 1440.76299721 284.91064412 1442.34778627 283.62890625 1443.93359375 C274.83164675 1454.7969986 265.64867088 1465.3184192 256.12475586 1475.54907227 C252.3285835 1479.62744024 248.63940762 1483.78159572 245 1488 C241.37 1491.63 237.74 1495.26 234 1499 C231.69 1501.64 229.38 1504.28 227 1507 C220.4978636 1513.5021364 213.92025088 1519.94478048 207 1526 C203.37 1529.63 199.74 1533.26 196 1537 C194.906875 1537.94875 193.81375 1538.8975 192.6875 1539.875 C189.30763666 1542.82642996 185.99041898 1545.83783312 182.6875 1548.875 C178.22477168 1552.94540056 173.63742 1556.80176909 168.9375 1560.59375 C165.6364533 1563.29779889 162.41264883 1566.08144477 159.1875 1568.875 C152.92018246 1574.28136133 146.48540949 1579.43113913 139.93945312 1584.49462891 C137.82265748 1586.1376503 135.71561113 1587.79268508 133.609375 1589.44921875 C125.15562544 1596.08533556 116.62801371 1602.5568831 107.82324219 1608.71972656 C105.83693288 1610.11450509 103.85943518 1611.52121784 101.8828125 1612.9296875 C31.74198853 1662.84095901 -45.07938363 1702.77095707 -126 1732 C-126.72449341 1732.2621228 -127.44898682 1732.52424561 -128.19543457 1732.79431152 C-161.38796302 1744.77515719 -195.25832243 1754.61239684 -229.49658203 1763.12646484 C-231.95262454 1763.73884952 -234.40656568 1764.35969496 -236.85888672 1764.98681641 C-246.18886656 1767.36847386 -255.55682487 1769.48853504 -265 1771.375 C-265.73622589 1771.52240631 -266.47245178 1771.66981262 -267.23098755 1771.82168579 C-313.70903336 1781.06002969 -362.54627657 1788 -410 1788 C-410.31130859 1789.38832031 -410.31130859 1789.38832031 -410.62890625 1790.8046875 C-421.16063214 1836.9718801 -421.16063214 1836.9718801 -438 1849 C-448.94686126 1852.64895375 -455.81425434 1851.79643641 -467 1849 C-479.11400621 1840.92399586 -482.47203893 1835.11184428 -486 1821 C-485 1810 -485 1810 -479 1788 C-481.92875 1787.82984375 -484.8575 1787.6596875 -487.875 1787.484375 C-575.32865704 1782.29926528 -660.97318471 1768.32077693 -782 1727.5625 C-782.67805695 1727.31701416 -783.35611389 1727.07152832 -784.05471802 1726.81860352 C-792.46446564 1723.76431129 -800.77396774 1720.52229663 -809 1717 C-809.99 1717 -810.98 1717 -812 1717 C-812 1716.34 -812 1715.68 -812 1715 C-814.97 1714.01 -817.94 1713.02 -821 1712 C-848.55904146 1699.89277411 -875.93056353 1687.33312748 -902.18603516 1672.57324219 C-905.31541758 1670.82365514 -908.45937188 1669.10215421 -911.60546875 1667.3828125 C-925.6804141 1659.66973847 -939.47919337 1651.64777143 -953 1643 C-953.81984375 1642.47728516 -954.6396875 1641.95457031 -955.484375 1641.41601562 C-986.30129334 1621.7193532 -1016.00008948 1600.581962 -1044.28710938 1577.39697266 C-1046.57033179 1575.53485769 -1048.87780718 1573.7041277 -1051.1875 1571.875 C-1059.95156094 1564.87848076 -1068.45088819 1557.57617611 -1076.75 1550.03515625 C-1078.74989375 1548.22622457 -1080.77269432 1546.45108199 -1082.8125 1544.6875 C-1091.50308856 1537.10747347 -1099.92551535 1529.23280788 -1108 1521 C-1110.64 1518.69 -1113.28 1516.38 -1116 1514 C-1123.16860439 1506.83139561 -1130.32412141 1499.62957553 -1137 1492 C-1140.3 1488.7 -1143.6 1485.4 -1147 1482 C-1147.94875 1480.906875 -1148.8975 1479.81375 -1149.875 1478.6875 C-1152.82642996 1475.30763666 -1155.83783312 1471.99041898 -1158.875 1468.6875 C-1162.94540056 1464.22477168 -1166.80176909 1459.63742 -1170.59375 1454.9375 C-1173.29779889 1451.6364533 -1176.08144477 1448.41264883 -1178.875 1445.1875 C-1184.284891 1438.91609069 -1189.43698582 1432.47675504 -1194.50341797 1425.92626953 C-1196.11838599 1423.8476239 -1197.74765255 1421.7807301 -1199.37890625 1419.71484375 C-1206.76501078 1410.33475631 -1213.80646732 1400.77938009 -1220.61816406 1390.97558594 C-1222.3494238 1388.50043508 -1224.11324441 1386.04983914 -1225.88085938 1383.60058594 C-1239.93358987 1364.1098679 -1252.86275393 1343.73050669 -1265 1323 C-1265.53705566 1322.08831055 -1266.07411133 1321.17662109 -1266.62744141 1320.23730469 C-1275.41909463 1305.28934583 -1283.70339421 1290.15641023 -1291.59667969 1274.71679688 C-1293.17048688 1271.6699412 -1294.79840639 1268.65613166 -1296.4387207 1265.64477539 C-1334.39089145 1195.65108942 -1359.94561705 1116.44765165 -1395 915 C-1395.05716187 914.30964661 -1395.11432373 913.61929321 -1395.17321777 912.90802002 C-1402.59413946 822.20270129 -1396.19165851 730.45294357 -1354 552 C-1353.78684143 551.3287207 -1353.57368286 550.65744141 -1353.35406494 549.96582031 C-1338.69548315 503.82979241 -1320.37260951 459.42281826 -1299 416 C-1298.2255957 414.41251953 -1298.2255957 414.41251953 -1297.43554688 412.79296875 C-1290.27257834 398.11889226 -1282.70419053 383.76383272 -1274.52148438 369.6328125 C-1273.09104939 367.15755401 -1271.67579686 364.67434322 -1270.265625 362.1875 C-1247.93795103 322.96677135 -1222.2764218 285.18282369 -1194 250 C-1193.4858252 249.3596582 -1192.97165039 248.71931641 -1192.44189453 248.05957031 C-1186.35723967 240.49624745 -1180.20040773 233.00092191 -1173.90698242 225.61035156 C-1169.53035182 220.46710078 -1165.25588758 215.24367384 -1161 210 C-1160.56244385 209.5373877 -1160.1248877 209.07477539 -1159.67407227 208.59814453 C-1157.63565502 206.44158534 -1155.59907591 204.28329811 -1153.5625 202.125 C-1152.87478516 201.39796875 -1152.18707031 200.6709375 -1151.47851562 199.921875 C-1146.2280788 194.3539699 -1141.12318183 188.69242426 -1136 183 C-1096 143 -1096 143 -1088 136 C-1085.65798349 133.86240519 -1083.32301359 131.72035762 -1081 129.5625 C-1080.41605469 129.02173828 -1079.83210938 128.48097656 -1079.23046875 127.92382812 C-1077.81940763 126.61686168 -1076.40956752 125.30857716 -1075 124 C-1074.37996094 123.50113281 -1073.75992187 123.00226563 -1073.12109375 122.48828125 C-1067.54656623 117.96861338 -1062.08568433 113.35251989 -1056.6875 108.625 C-1050.1836582 102.94663628 -1043.50588199 97.54718724 -1036.66455078 92.28222656 C-1035.07264252 91.05595754 -1033.48732658 89.8211448 -1031.90234375 88.5859375 C-1012.77486731 73.73856641 -993.12686148 59.51834274 -972.88037109 46.234375 C-971.6343525 45.41642252 -970.38986285 44.59613583 -969.14697266 43.7734375 C-950.02725239 31.12309462 -930.37968757 19.10031183 -910.20800781 8.20117188 C-907.86593407 6.92706718 -905.5379712 5.6294817 -903.2109375 4.328125 C-836.93467197 -32.5616737 -765.38914972 -60.88734814 -692 -80 C-690.66018554 -80.35431337 -689.32050798 -80.70914479 -687.98095703 -81.06445312 C-633.968607 -95.3550381 -578.67039633 -104.43443025 -523 -109 C-522.30507446 -109.05716187 -521.61014893 -109.11432373 -520.89416504 -109.17321777 C-432.99376468 -116.30510676 -344.20671066 -110.0511877 0 0 Z M-543 -37 C-543.72539978 -36.91963501 -544.45079956 -36.83927002 -545.19818115 -36.75646973 C-638.95126514 -26.32117655 -731.62470828 -1.19793605 -817 39 C-817.89211182 39.41928772 -817.89211182 39.41928772 -818.80224609 39.8470459 C-843.91000945 51.65745175 -868.49527747 64.24403588 -892.35205078 78.43212891 C-894.69339213 79.81845512 -897.04363683 81.18648027 -899.40234375 82.54296875 C-919.26662489 93.9928003 -938.36323051 106.65905243 -957 120 C-958.53505353 121.08998842 -960.07020878 122.17983362 -961.60546875 123.26953125 C-982.89792305 138.44833322 -1003.26143488 154.85826495 -1023 172 C-1023.75796875 172.65613281 -1024.5159375 173.31226563 -1025.296875 173.98828125 C-1030.58996753 178.59327176 -1035.80132439 183.28893466 -1041 188 C-1041.48549316 188.43892578 -1041.97098633 188.87785156 -1042.47119141 189.33007812 C-1049.15792059 195.38192314 -1055.69270336 201.54935571 -1062 208 C-1064.64 210.31 -1067.28 212.62 -1070 215 C-1071.485 216.59328125 -1071.485 216.59328125 -1073 218.21875 C-1086.59869678 232.78275981 -1086.59869678 232.78275981 -1093 239 C-1093.36609375 239.42667969 -1093.7321875 239.85335938 -1094.109375 240.29296875 C-1099.92002924 247.00289091 -1105.96173697 253.4957298 -1112 260 C-1112.78310547 260.96486328 -1112.78310547 260.96486328 -1113.58203125 261.94921875 C-1117.34889386 266.5736858 -1121.13391221 271.17484535 -1125.00732422 275.71020508 C-1131.21522832 282.98304953 -1137.15594697 290.43281468 -1143 298 C-1143.60505371 298.77907715 -1144.21010742 299.5581543 -1144.83349609 300.36083984 C-1153.19838829 311.14369241 -1161.24661339 322.06028781 -1168.87109375 333.37890625 C-1172.11696937 338.19685838 -1175.45454333 342.94720781 -1178.8125 347.6875 C-1179.33489258 348.42516602 -1179.85728516 349.16283203 -1180.39550781 349.92285156 C-1181.59584699 351.61605605 -1182.79773423 353.30816295 -1184 355 C-1184.64324219 356.05574219 -1185.28648437 357.11148437 -1185.94921875 358.19921875 C-1186.861941 359.69533578 -1187.7747051 361.19142729 -1188.6875 362.6875 C-1189.1815332 363.49840088 -1189.67556641 364.30930176 -1190.18457031 365.14477539 C-1192.79493392 369.42151089 -1195.42295994 373.68503412 -1198.09765625 377.921875 C-1246.54653561 454.83938851 -1281.22960072 540.64395372 -1306.92529297 1030.82470703 C-1294.2012113 1086.78038631 -1276.37570128 1141.5803567 -1253 1194 C-1252.29738037 1195.5787793 -1252.29738037 1195.5787793 -1251.58056641 1197.18945312 C-1239.38503744 1224.43757972 -1226.1067768 1251.24542014 -1211 1277 C-1209.910095 1278.8749644 -1208.82025209 1280.74996489 -1207.73046875 1282.625 C-1188.31690903 1315.88194773 -1166.59571376 1347.57710003 -1143 1378 C-1142.51789063 1378.62390625 -1142.03578125 1379.2478125 -1141.5390625 1379.890625 C-1135.34684168 1387.89603756 -1128.95808956 1395.7002136 -1122.375 1403.38671875 C-1120.99084195 1405.0107451 -1119.61873513 1406.64421167 -1118.25 1408.28125 C-1112.82925875 1414.75613113 -1107.26404465 1421.05751706 -1101.52734375 1427.25390625 C-1098.28308646 1430.77896479 -1095.13480462 1434.3775591 -1092 1438 C-1089.36 1440.64 -1086.72 1443.28 -1084 1446 C-1081.69 1448.64 -1079.38 1451.28 -1077 1454 C-1063.29477615 1467.81508222 -1063.29477615 1467.81508222 -1049 1481 C-1046.69 1483.31 -1044.38 1485.62 -1042 1488 C-1040.88625 1488.969375 -1039.7725 1489.93875 -1038.625 1490.9375 C-1035.44560722 1493.71457946 -1032.30904132 1496.53314878 -1029.1875 1499.375 C-1024.86739209 1503.27363397 -1020.41928619 1506.97503858 -1015.89453125 1510.6328125 C-1013.38680768 1512.68366335 -1010.91960567 1514.77367563 -1008.46386719 1516.88623047 C-1000.97999046 1523.30985299 -993.20848961 1529.31167285 -985.33154297 1535.24365234 C-982.90630882 1537.07057742 -980.48631029 1538.90430351 -978.06640625 1540.73828125 C-950.50627854 1561.57785874 -921.83292883 1580.57209004 -892 1598 C-891.10410156 1598.5264209 -890.20820312 1599.0528418 -889.28515625 1599.59521484 C-875.1164864 1607.90325547 -860.62546205 1615.53095837 -846 1623 C-844.63798947 1623.70176204 -843.27600583 1624.4035763 -841.9140625 1625.10546875 C-837.96833401 1627.12386878 -833.99011636 1629.07104072 -830 1631 C-828.53288574 1631.7118042 -828.53288574 1631.7118042 -827.03613281 1632.43798828 C-749.60541016 1669.80533762 -666.42256777 1695.07972877 -459 1718 C-452.93613584 1697.90445361 -447.58147935 1677.62989101 -442.21844482 1657.33911133 C-439.73605154 1647.9473721 -437.24376026 1638.5582573 -434.75152969 1629.1691246 C-434.17598757 1627.00084658 -433.6005359 1624.83254454 -433.02517319 1622.6642189 C-427.11496347 1600.39300427 -421.14352225 1578.13846729 -415.1527977 1555.88879395 C-412.81077994 1547.19037954 -410.46978719 1538.49168915 -408.12890625 1529.79296875 C-407.87324701 1528.843009 -407.61758778 1527.89304924 -407.35418129 1526.91430283 C-401.6506812 1505.71983205 -395.97890362 1484.51691367 -390.3125 1463.3125 C-388.41292603 1456.20438282 -386.51323663 1449.0962965 -384.61328125 1441.98828125 C-384.38012962 1441.11601017 -384.146978 1440.24373909 -383.90676117 1439.34503555 C-378.6179188 1419.55975703 -373.3098524 1399.77964832 -368 1380 C-360.48461932 1352.00410183 -352.98577771 1324.00382797 -345.5 1296 C-338.07542658 1268.22569033 -330.63988387 1240.45436097 -323.1875 1212.6875 C-322.96431595 1211.85593006 -322.7411319 1211.02436012 -322.51118469 1210.16759109 C-321.83135404 1207.63459407 -321.15151765 1205.10159858 -320.47167969 1202.56860352 C-319.5527287 1199.14469553 -318.63378452 1195.72078572 -317.71484375 1192.296875 C-317.48524082 1191.44140516 -317.25563789 1190.58593533 -317.0190773 1189.70454216 C-311.09099541 1167.6168836 -305.1703335 1145.52723646 -299.25 1123.4375 C-298.97909294 1122.42670128 -298.70818588 1121.41590256 -298.42906952 1120.37447357 C-296.22676972 1112.15730231 -294.02447684 1103.94012918 -291.82223511 1095.72294235 C-287.95031441 1081.27573781 -284.07752165 1066.82876733 -280.20399857 1052.38199234 C-277.74001595 1043.19220171 -275.2762059 1034.00236482 -272.8125 1024.8125 C-272.54266296 1023.80598137 -272.27282593 1022.79946274 -271.99481201 1021.76244354 C-264.0692221 992.19863998 -256.15483543 962.63185928 -248.25 933.0625 C-240.00632447 902.22565264 -231.74491179 871.39360924 -223.47070312 840.56494141 C-222.55207811 837.14225401 -221.63345905 833.71956501 -220.71484375 830.296875 C-220.48526348 829.44149014 -220.25568321 828.58610527 -220.01914597 827.70479965 C-214.09104143 805.61705519 -208.1703565 783.52732226 -202.25 761.4375 C-201.97909294 760.42670128 -201.70818588 759.41590256 -201.42906952 758.37447357 C-199.22676972 750.15730231 -197.02447684 741.94012918 -194.82223511 733.72294235 C-190.95031441 719.27573781 -187.07752165 704.82876733 -183.20399857 690.38199234 C-180.74001595 681.19220171 -178.2762059 672.00236482 -175.8125 662.8125 C-175.54266296 661.80598137 -175.27282593 660.79946274 -174.99481201 659.76244354 C-167.0692221 630.19863998 -159.15483543 600.63185928 -151.25 571.0625 C-143.00632447 540.22565264 -134.74491179 509.39360924 -126.47070312 478.56494141 C-125.55207811 475.14225401 -124.63345905 471.71956501 -123.71484375 468.296875 C-123.48526348 467.44149014 -123.25568321 466.58610527 -123.01914597 465.70479965 C-117.09104143 443.61705519 -111.1703565 421.52732226 -105.25 399.4375 C-104.97909294 398.42670128 -104.70818588 397.41590256 -104.42906952 396.37447357 C-102.22676972 388.15730231 -100.02447684 379.94012918 -97.82223511 371.72294235 C-93.95031441 357.27573781 -90.07752165 342.82876733 -86.20399857 328.38199234 C-83.74001595 319.19220171 -81.2762059 310.00236482 -78.8125 300.8125 C-78.54266296 299.80598137 -78.27282593 298.79946274 -77.99481201 297.76244354 C-69.83352272 267.31944102 -61.68462997 236.87314341 -53.54475784 206.42440796 C-46.20231272 178.9589236 -38.8480549 151.49662819 -31.48112488 124.03770065 C-30.75757965 121.34075246 -30.03411685 118.64378216 -29.31066895 115.94680786 C-28.18244866 111.74100533 -27.05395082 107.53527738 -25.92521667 103.32961273 C-25.5139848 101.79727741 -25.10281886 100.26492438 -24.69172668 98.73255157 C-22.47862604 90.48357226 -20.2564998 82.23723298 -18 74 C-18 72.68 -18 71.36 -18 70 C-84.08538576 33.31068178 -154.20922917 4.50775986 -400 -41 C-401.67280029 -41.10803955 -401.67280029 -41.10803955 -403.37939453 -41.21826172 C-449.76840923 -44.06518644 -496.84147094 -42.17022649 -543 -37 Z M40 107 C39.79385071 107.77528046 39.58770142 108.55056091 39.37530518 109.34933472 C29.85234972 145.15779308 20.30405077 180.95891612 10.61668015 216.72328949 C3.75601105 242.05207227 -3.05975359 267.3922218 -9.8125 292.75 C-10.01544552 293.5120789 -10.21839104 294.27415779 -10.42748642 295.05932999 C-11.4597624 298.93574854 -12.49193732 302.81219399 -13.52409363 306.68864441 C-13.73108572 307.46603659 -13.93807781 308.24342876 -14.15134239 309.04437828 C-14.57191464 310.62394415 -14.99246843 312.20351494 -15.41300392 313.78309059 C-20.86366616 334.25545951 -26.33759032 354.72160466 -31.8125 375.1875 C-32.05816711 376.10587269 -32.30383423 377.02424538 -32.5569458 377.97044754 C-35.83355837 390.21933952 -39.11096206 402.46801967 -42.38891602 414.71655273 C-42.96894173 416.88394407 -43.54893249 419.05134476 -44.12890625 421.21875 C-50.11103009 443.57431775 -56.09776324 465.92863535 -62.10546875 488.27734375 C-62.46443701 489.61276749 -62.82340511 490.94819128 -63.18237305 492.28361511 C-64.65979499 497.77976109 -66.13722874 503.27590386 -67.61505127 508.77194214 C-72.33485846 526.32582439 -77.04071858 543.88337497 -81.73046875 561.4453125 C-82.22418694 563.29397726 -82.7179105 565.14264059 -83.2116394 566.99130249 C-83.45699118 567.90998171 -83.70234295 568.82866093 -83.95512962 569.77517891 C-84.95040868 573.50181969 -85.94569738 577.22845789 -86.94102478 580.95508575 C-87.43836922 582.8172173 -87.93569387 584.67935414 -88.43299866 586.54149628 C-94.94119661 610.90988005 -101.49916245 635.26296299 -108.16488647 659.58877563 C-112.48363129 675.35541454 -116.69257146 691.14661225 -120.80859375 706.96728516 C-126.12414261 727.38620961 -131.61239934 747.75884814 -137.08483887 768.13616943 C-139.3178051 776.4524531 -141.54366342 784.77061365 -143.765625 793.08984375 C-150.02997858 816.53598618 -156.34322258 839.96734611 -162.75 863.375 C-167.31101571 880.04045111 -171.80146919 896.72053603 -176.15161133 913.44226074 C-180.11803954 928.6878034 -184.16818391 943.90995243 -188.25 959.125 C-188.56646484 960.30472382 -188.88292969 961.48444763 -189.20898438 962.69992065 C-190.82547868 968.724938 -192.44282512 974.74972619 -194.06054688 980.77441406 C-196.9003786 991.35202156 -199.73282611 1001.93160646 -202.56570435 1012.51107788 C-203.81734716 1017.18506334 -205.06939015 1021.85894157 -206.32142639 1026.53282166 C-208.79347859 1035.76108642 -211.26505563 1044.98947811 -213.73562622 1054.21813965 C-219.19528375 1074.61225105 -224.65569045 1095.006151 -230.13671875 1115.39453125 C-230.31266634 1116.04903889 -230.48861393 1116.70354652 -230.66989326 1117.37788773 C-231.39267088 1120.0665246 -232.11546971 1122.75515578 -232.83827686 1125.44378471 C-233.39219171 1127.50418789 -233.9460986 1129.56459321 -234.5 1131.625 C-234.68430195 1132.31056473 -234.8686039 1132.99612946 -235.05849075 1133.70246887 C-242.05471831 1159.72804936 -249.02157674 1185.7614343 -255.98091125 1211.7969017 C-264.07432483 1242.07483608 -272.18533298 1272.34800105 -280.31172085 1302.61710167 C-281.44361038 1306.83324407 -282.57537065 1311.04942115 -283.70703125 1315.265625 C-283.92870279 1316.09149738 -284.15037434 1316.91736977 -284.3787632 1317.76826859 C-287.61814416 1329.83828751 -290.84916417 1341.91052074 -294.07421875 1353.984375 C-294.48606581 1355.52603363 -294.89792083 1357.06769014 -295.30978394 1358.60934448 C-295.51203268 1359.36638735 -295.71428143 1360.12343021 -295.92265892 1360.90341377 C-296.92755376 1364.66478979 -297.93251077 1368.4261492 -298.9375 1372.1875 C-299.13338211 1372.9206971 -299.32926422 1373.6538942 -299.53108215 1374.40930939 C-305.26510894 1395.87045073 -311.07045244 1417.31072111 -316.93746948 1438.73596191 C-321.1016044 1453.94946682 -325.18138901 1469.18145324 -329.15270996 1484.44638062 C-333.11876347 1499.69055228 -337.16855215 1514.91132504 -341.25 1530.125 C-341.56646484 1531.30472382 -341.88292969 1532.48444763 -342.20898438 1533.69992065 C-343.82547868 1539.724938 -345.44282512 1545.74972619 -347.06054688 1551.77441406 C-349.90101779 1562.35440237 -352.73410781 1572.93636722 -355.56762695 1583.51821899 C-357.1228805 1589.32603624 -358.67866321 1595.13371174 -360.234375 1600.94140625 C-362.46142496 1609.25559285 -364.68827888 1617.56983193 -366.91493225 1625.88412476 C-374.60301366 1654.59128104 -382.29540375 1683.29727128 -390 1712 C-390 1712.99 -390 1713.98 -390 1715 C-351.94544086 1715 -290.43912462 1713.21956231 -256 1696 C-255.79527573 1695.23486084 -255.59055145 1694.46972168 -255.37962341 1693.68139648 C-254.37679166 1689.93342792 -253.37394515 1686.18546331 -252.37109375 1682.4375 C-252.08826979 1681.38049361 -252.08826979 1681.38049361 -251.79973221 1680.30213356 C-249.47477476 1671.61304586 -247.14959175 1662.92401858 -244.82397461 1654.23510742 C-244.16370727 1651.76820721 -243.50344105 1649.30130669 -242.84317589 1646.8344059 C-242.3992314 1645.1757326 -241.95528327 1643.51706027 -241.51133156 1641.8583889 C-238.94074549 1632.25414748 -236.37127196 1622.64961061 -233.80418396 1613.04443359 C-232.22437625 1607.13358743 -230.64371105 1601.2229709 -229.0625 1595.3125 C-228.75806976 1594.17447937 -228.45363953 1593.03645874 -228.13998413 1591.86395264 C-223.81248518 1575.69364442 -219.42589656 1559.54032717 -215.0022583 1543.39608765 C-211.334974 1530.00312437 -207.7824389 1516.58397204 -204.29333496 1503.14361572 C-199.30364147 1483.94760631 -194.07963106 1464.8157693 -188.86794662 1445.67918777 C-183.69750933 1426.69266344 -178.56269265 1407.70005962 -173.625 1388.65136719 C-169.71137254 1373.56555634 -165.61823442 1358.53112074 -161.5 1343.5 C-157.08271544 1327.37539765 -152.70785329 1311.24310382 -148.5 1295.0625 C-142.75238023 1272.96560377 -136.83701143 1250.91458973 -130.91516113 1228.86383057 C-128.6821949 1220.5475469 -126.45633658 1212.22938635 -124.234375 1203.91015625 C-117.97002142 1180.46401382 -111.65677742 1157.03265389 -105.25 1133.625 C-100.91679624 1117.79194879 -96.63405894 1101.94877156 -92.5 1086.0625 C-88.31002455 1069.96292357 -84.05423656 1053.88193382 -79.75 1037.8125 C-79.4348645 1036.63581757 -79.119729 1035.45913513 -78.79504395 1034.24679565 C-73.68714652 1015.18719281 -68.49942325 996.14993065 -63.29003906 977.11785889 C-59.13795751 961.94092774 -55.07100407 946.74611891 -51.12194824 931.51519775 C-46.19313942 912.52689347 -41.02218062 893.60479677 -35.86734009 874.67696381 C-30.69710228 855.69118171 -25.5624998 836.69931562 -20.625 817.65136719 C-16.3997979 801.36453348 -11.96262968 785.13765297 -7.51635742 768.90997314 C-3.50790429 754.27402245 0.44228765 739.62694029 4.25 724.9375 C9.38226649 705.13990194 14.7585566 685.40989814 20.13265991 665.67696381 C25.30289772 646.69118171 30.4375002 627.69931562 35.375 608.65136719 C39.6002021 592.36453348 44.03737032 576.13765297 48.48364258 559.90997314 C52.49209571 545.27402245 56.44228765 530.62694029 60.25 515.9375 C65.38226649 496.13990194 70.7585566 476.40989814 76.13265991 456.67696381 C81.30289772 437.69118171 86.4375002 418.69931562 91.375 399.65136719 C95.28862746 384.56555634 99.38176558 369.53112074 103.5 354.5 C107.91728414 338.37539917 112.29224561 322.2431289 116.5 306.0625 C120.78542957 289.58554908 125.15323735 273.13176298 129.5625 256.6875 C130.04180466 254.89990768 130.04180466 254.89990768 130.53079224 253.07620239 C135.99347801 232.7101661 141.48227491 212.35119285 147 192 C142.1147408 185.08574929 142.1147408 185.08574929 138 184 C138 183.34 138 182.68 138 182 C137.33355469 181.46632813 136.66710938 180.93265625 135.98046875 180.3828125 C129.09007572 174.8126766 122.49839658 169.02075815 116 163 C114.74509766 162.01773438 114.74509766 162.01773438 113.46484375 161.015625 C112.28891993 160.09393187 111.11315171 159.17204019 109.9375 158.25 C109.3069873 157.75556396 108.67647461 157.26112793 108.02685547 156.75170898 C104.15205152 153.70749373 100.29933923 150.63807308 96.46411133 147.54418945 C84.24931964 137.70328002 71.74303566 128.40438999 58.75756836 119.60302734 C52.74255574 115.52579122 46.83129358 111.3374341 41 107 C40.67 107 40.34 107 40 107 Z M204 248 C199.15722884 264.57580864 194.689713 281.24722693 190.26092529 297.93707275 C188.27682386 305.41400669 186.28608989 312.88917654 184.29590988 320.36449432 C183.8313697 322.10943648 183.36689516 323.85439612 182.90248489 325.59937286 C177.97615177 344.10935396 173.01757356 362.61061858 168.05037308 381.10966873 C166.91157083 385.35097622 165.77306566 389.59236346 164.63452148 393.83374023 C163.22639206 399.07930545 161.8182308 404.3248621 160.40995789 409.57038879 C154.62231163 431.12887544 148.84192285 452.68930759 143.0625 474.25 C142.65280849 475.7783378 142.65280849 475.7783378 142.23484039 477.33755112 C133.99062668 508.09240188 125.75857782 538.8504879 117.53530121 569.61094284 C110.43203203 596.18153348 103.316726 622.74886203 96.1875 649.3125 C95.96449093 650.14345058 95.74148186 650.97440117 95.51171494 651.83053207 C94.37716185 656.05796906 93.24259091 660.28540125 92.10801697 664.51283264 C91.88057234 665.36029619 91.65312771 666.20775974 91.41879082 667.08090401 C90.95652013 668.80333097 90.4942462 670.52575706 90.03196907 672.2481823 C84.03817947 694.58105796 78.0495591 716.91531916 72.0625 739.25 C71.78917217 740.26962578 71.51584435 741.28925156 71.23423386 742.33977509 C62.99018456 773.09387438 54.75837936 803.85123027 46.53530121 834.61094284 C38.52975257 864.55661299 30.50579673 894.49730358 22.47070312 924.43505859 C21.55207811 927.85774599 20.63345905 931.28043499 19.71484375 934.703125 C19.48526348 935.55850986 19.25568321 936.41389473 19.01914597 937.29520035 C13.09104143 959.38294481 7.1703565 981.47267774 1.25 1003.5625 C0.97909294 1004.57329872 0.70818588 1005.58409744 0.42906952 1006.62552643 C-1.77323028 1014.84269769 -3.97552316 1023.05987082 -6.17776489 1031.27705765 C-10.04968559 1045.72426219 -13.92247835 1060.17123267 -17.79600143 1074.61800766 C-20.25998405 1083.80779829 -22.7237941 1092.99763518 -25.1875 1102.1875 C-25.45733704 1103.19401863 -25.72717407 1104.20053726 -26.00518799 1105.23755646 C-33.9307779 1134.80136002 -41.84516457 1164.36814072 -49.75 1193.9375 C-57.99367553 1224.77434736 -66.25508821 1255.60639076 -74.52929688 1286.43505859 C-75.44792189 1289.85774599 -76.36654095 1293.28043499 -77.28515625 1296.703125 C-77.62952665 1297.9862023 -77.62952665 1297.9862023 -77.98085403 1299.29520035 C-83.90895857 1321.38294481 -89.8296435 1343.47267774 -95.75 1365.5625 C-96.15636059 1367.07869808 -96.15636059 1367.07869808 -96.57093048 1368.62552643 C-98.77323028 1376.84269769 -100.97552316 1385.05987082 -103.17776489 1393.27705765 C-107.04967338 1407.72421662 -110.92245503 1422.17114123 -114.7959671 1436.61787033 C-116.98750639 1444.7915676 -119.1788683 1452.96531243 -121.37021637 1461.13906097 C-122.18679115 1464.18485601 -123.00339887 1467.23064221 -123.82000732 1470.27642822 C-129.56876061 1491.71867092 -135.31314264 1513.16206601 -141.04296875 1534.609375 C-141.53583532 1536.45411749 -142.02870437 1538.29885931 -142.52157593 1540.14360046 C-142.7639694 1541.05085027 -143.00636288 1541.95810007 -143.25610161 1542.89284229 C-144.46236781 1547.40773708 -145.66865945 1551.92262507 -146.875 1556.4375 C-147.10900009 1557.31329838 -147.34300018 1558.18909676 -147.58409119 1559.09143448 C-157.64604674 1596.74837451 -167.8045569 1634.37900283 -178 1672 C-178 1672.99 -178 1673.98 -178 1675 C-119.6749965 1666.66785664 -54.15429312 1628.00938517 -4.66113281 1598.57666016 C-2.27946249 1597.16557511 0.11058319 1595.77114839 2.5078125 1594.38671875 C43.96576609 1570.40414115 82.9468171 1541.93462194 119.39135742 1510.90576172 C124.53369076 1506.52913505 129.75687578 1502.2554415 135 1498 C135.45213867 1497.57291748 135.90427734 1497.14583496 136.37011719 1496.70581055 C138.49590247 1494.69881281 140.62295114 1492.69315851 142.75 1490.6875 C143.46027344 1490.01654297 144.17054688 1489.34558594 144.90234375 1488.65429688 C149.10468436 1484.69368382 153.34402061 1480.78179546 157.625 1476.90625 C165.07610985 1470.12135384 172.1494591 1462.96004673 179.25 1455.8125 C180.59221051 1454.46525823 181.93465711 1453.11825163 183.27734375 1451.77148438 C188.91645509 1446.26698867 188.91645509 1446.26698867 194.28735352 1440.51367188 C198.42130189 1435.76192882 202.63726102 1431.10140383 206.9375 1426.5 C207.82018555 1425.55253906 207.82018555 1425.55253906 208.72070312 1424.5859375 C210.14605868 1423.05628764 211.57287017 1421.52799464 213 1420 C213.49886719 1419.37996094 213.99773437 1418.75992187 214.51171875 1418.12109375 C219.03140279 1412.54654629 223.64787097 1407.08604065 228.375 1401.6875 C233.94552349 1395.29901197 239.2681553 1388.76600248 244.42919922 1382.04345703 C246.20727966 1379.73034959 247.9967376 1377.42621617 249.78515625 1375.12109375 C257.50573531 1365.12373073 264.90562586 1354.98552478 271.9375 1344.4921875 C275.48236512 1339.22532489 279.24089736 1334.11509873 283 1329 C292.59699488 1314.15361755 302.06206594 1299.25580844 311 1284 C311.68594238 1282.83645996 311.68594238 1282.83645996 312.38574219 1281.64941406 C341.98834658 1231.29790469 366.06485731 1178.22891077 385 1123 C385.24385437 1122.28906189 385.48770874 1121.57812378 385.73895264 1120.84564209 C422.36140203 1013.72444126 436.67172718 900.891364 382.67840576 546.96490479 C382.04538809 545.13146007 381.41539898 543.29697048 380.78564453 541.46240234 C371.42897074 514.33413729 359.95045424 488.06792419 348 462 C347.36384766 460.61167969 347.36384766 460.61167969 346.71484375 459.1953125 C333.6777967 430.88383739 318.35565161 403.51648845 302 377 C301.30390625 375.86618896 301.30390625 375.86618896 300.59375 374.70947266 C274.63782499 332.55813193 244.67378672 293.13654783 212 256 C210.68713266 254.5003215 209.37462986 253.00032379 208.0625 251.5 C207.47597656 250.8296875 206.88945313 250.159375 206.28515625 249.46875 C205.86105469 248.9840625 205.43695312 248.499375 205 248 C204.67 248 204.34 248 204 248 Z " fill="#000000" transform="translate(1448,140)"/>
<path d="" fill="#000000" transform="translate(0,0)"/>
<path d="" fill="#000000" transform="translate(0,0)"/>
<path d="" fill="#000000" transform="translate(0,0)"/>
<path d="" fill="#000000" transform="translate(0,0)"/>
<path d="" fill="#000000" transform="translate(0,0)"/>
<path d="" fill="#000000" transform="translate(0,0)"/>
</svg>
